<svg xmlns="http://www.w3.org/2000/svg" xmlns:xlink="http://www.w3.org/1999/xlink" overflow="visible" width="75" height="75" viewBox="2 1 18 18" style="position:absolute;left:0;top:0;">
  <defs></defs>
  <g>
    <path fill="rgb(242, 196, 19)" fill-opacity="1" stroke="rgb(242, 196, 19)" stroke-opacity="0" stroke-width="1" stroke-linecap="butt" stroke-linejoin="miter" stroke-miterlimit="4" name="path" d="M 9 5.998a 2 2 0 1 1 0-4 2 2 0 0 1 0 4zm 1.22 3.115c-0.139-0.345-0.22-0.72-0.22-1.115 0-0.771 0.3-1.468 0.78-2H 7a 2 2 0 0 0-2 2V 11a 1 1 0 0 0 1 1v 0.998a 1 1 0 0 0 1 1h 1v-2c 0-1.383 0.945-2.538 2.22-2.885zM 13 5.998a 2 2 0 1 0 0 4 2 2 0 0 0 0-4zM 15 10h-4a 2 2 0 0 0-2 2v 3a 1 1 0 0 0 1 1v 1a 1 1 0 0 0 1 1h 4a 1 1 0 0 0 1-1v-1a 1 1 0 0 0 1-1v-3a 2 2 0 0 0-2-2z" fill-rule="evenodd">
    </path>
  </g>
</svg>