<?xml version="1.0" encoding="UTF-8"?>
<svg width="27px" height="27px" viewBox="0 0 27 27" version="1.1" xmlns="http://www.w3.org/2000/svg" xmlns:xlink="http://www.w3.org/1999/xlink">
    <title>search</title>
    <g id="By-Region" stroke="none" stroke-width="1" fill="none" fill-rule="evenodd">
        <g id="Region-Home-Page-Search" transform="translate(-100.000000, -332.000000)" fill="#226FB7" fill-rule="nonzero">
            <g id="Shape-2" transform="translate(100.000000, 332.000000)">
                <path d="M26.2605781,23.3424816 L19.7292181,16.7879126 C22.5013621,12.6192418 21.9524216,7.0792075 18.4118049,3.54026685 C16.4083532,1.56572282 13.7747341,0.468686869 10.9479815,0.468686869 C8.12122885,0.468686869 5.48766464,1.56577767 3.51077639,3.54026685 C-0.577463645,7.65435736 -0.577463645,14.3194583 3.51077639,18.405573 C7.05128336,21.9442393 12.5944736,22.4927847 16.7653127,19.75014 L23.323291,26.304709 C23.6255869,26.6068478 24.146537,26.6068478 24.448833,26.304709 L26.2604135,24.4940704 C26.5894924,24.1651625 26.5894924,23.6444558 26.2604135,23.3423444 L26.2605781,23.3424816 Z M15.499462,15.5230028 C12.8975012,18.1236109 8.64761481,18.1236109 6.02066986,15.5230028 C3.41870909,12.9223947 3.41870909,8.67471763 6.02066986,6.04913833 C8.62263063,3.44853023 12.8725171,3.44853023 15.499462,6.04913833 C18.1014228,8.67574737 18.1014228,12.9234244 15.499462,15.5230028 Z" id="search"></path>
            </g>
        </g>
    </g>
</svg>